<?xml version="1.0" encoding="UTF-8" standalone="no"?>
<svg width="519px" height="71px" viewBox="0 0 519 71" version="1.1" xmlns="http://www.w3.org/2000/svg" xmlns:xlink="http://www.w3.org/1999/xlink" xmlns:sketch="http://www.bohemiancoding.com/sketch/ns">
    <!-- Generator: Sketch 3.3.3 (12072) - http://www.bohemiancoding.com/sketch -->
    <title>disconnected</title>
    <desc>Created with Sketch.</desc>
    <defs></defs>
    <g id="Page-1" stroke="none" stroke-width="1" fill="none" fill-rule="evenodd" sketch:type="MSPage">
        <g id="iPad-Portrait" sketch:type="MSArtboardGroup" transform="translate(-128.000000, -3106.000000)">
            <g id="disconnected" sketch:type="MSLayerGroup" transform="translate(128.000000, 3106.000000)">
                <path d="M8.336,58 L23.888,58 C37.136,58 44.264,49.216 44.264,33.232 C44.264,18.112 37.208,9.4 23.888,9.4 L8.336,9.4 L8.336,58 Z M14.888,52.672 L14.888,14.728 L23.96,14.728 C33.392,14.728 37.496,21.928 37.496,33.448 C37.496,45.112 33.464,52.672 23.96,52.672 L14.888,52.672 Z M50.816,14.512 L57.296,14.512 L57.296,52.888 L50.816,52.888 L50.816,58 L71.12,58 L71.12,52.888 L63.848,52.888 L63.848,14.512 L71.12,14.512 L71.12,9.4 L50.816,9.4 L50.816,14.512 Z M77.888,43.672 C76.304,53.536 84.152,58.864 94.952,58.864 C106.616,58.864 112.304,52.6 112.304,44.896 C112.304,35.68 104.24,33.016 97.112,30.712 C90.632,28.696 85.52,26.752 85.52,21.064 C85.52,16.96 88.112,13.432 95.312,13.432 C102.512,13.432 106.112,16.816 105.032,24.952 L111.584,24.304 C112.808,15.16 107.552,8.536 95.672,8.536 C85.088,8.536 78.824,13.864 78.824,22 C78.824,32.224 88.4,34.456 95.168,36.76 C101.72,38.92 105.608,41.224 105.608,46.048 C105.608,49.936 103.232,53.68 95.096,53.68 C86.24,53.68 82.28,49.216 83.936,42.952 L77.888,43.672 Z M140.24,58.864 C151.4,58.864 158.168,52.528 157.664,44.248 L151.904,43.528 C152.408,50.296 147.152,53.68 140.456,53.68 C132.968,53.68 126.92,49.432 126.92,33.52 C126.92,17.968 132.68,13.432 140.024,13.432 C147.152,13.432 151.76,16.672 150.608,24.952 L157.16,24.304 C158.384,15.304 152.552,8.536 140.168,8.536 C127.928,8.536 119.936,15.736 119.936,33.448 C119.936,51.088 127.928,58.864 140.24,58.864 L140.24,58.864 Z M185.384,58.864 C196.832,58.864 205.472,52.456 205.472,33.016 C205.472,15.52 197.12,8.536 185.384,8.536 C173.648,8.536 165.08,15.52 165.08,33.016 C165.08,51.88 173.648,58.864 185.384,58.864 L185.384,58.864 Z M185.24,53.968 C177.896,53.968 171.92,49.36 171.92,33.016 C171.92,18.04 177.896,13.432 185.24,13.432 C192.584,13.432 198.632,18.04 198.632,33.016 C198.632,49.36 192.584,53.968 185.24,53.968 L185.24,53.968 Z M215.768,58 L221.312,58 L221.312,27.544 C221.312,23.944 220.88,20.056 220.88,20.056 L221.168,20.056 C221.168,20.056 222.968,23.8 224.768,26.608 L245.072,58 L250.688,58 L250.688,9.4 L245.144,9.4 L245.144,40.288 C245.144,43.528 245.72,47.56 245.72,47.56 L245.432,47.56 C245.432,47.56 243.416,43.528 241.832,41.08 L221.312,9.4 L215.768,9.4 L215.768,58 Z M263.36,58 L268.904,58 L268.904,27.544 C268.904,23.944 268.472,20.056 268.472,20.056 L268.76,20.056 C268.76,20.056 270.56,23.8 272.36,26.608 L292.664,58 L298.28,58 L298.28,9.4 L292.736,9.4 L292.736,40.288 C292.736,43.528 293.312,47.56 293.312,47.56 L293.024,47.56 C293.024,47.56 291.008,43.528 289.424,41.08 L268.904,9.4 L263.36,9.4 L263.36,58 Z M310.952,58 L339.824,58 L339.824,52.672 L317.504,52.672 L317.504,35.176 L335.864,35.176 L335.864,29.848 L317.504,29.848 L317.504,14.728 L339.104,14.728 L339.104,9.4 L310.952,9.4 L310.952,58 Z M366.608,58.864 C377.768,58.864 384.536,52.528 384.032,44.248 L378.272,43.528 C378.776,50.296 373.52,53.68 366.824,53.68 C359.336,53.68 353.288,49.432 353.288,33.52 C353.288,17.968 359.048,13.432 366.392,13.432 C373.52,13.432 378.128,16.672 376.976,24.952 L383.528,24.304 C384.752,15.304 378.92,8.536 366.536,8.536 C354.296,8.536 346.304,15.736 346.304,33.448 C346.304,51.088 354.296,58.864 366.608,58.864 L366.608,58.864 Z M389.432,14.728 L403.4,14.728 L403.4,58 L409.952,58 L409.952,14.728 L424.208,14.728 L424.208,9.4 L389.432,9.4 L389.432,14.728 Z M432.344,58 L461.216,58 L461.216,52.672 L438.896,52.672 L438.896,35.176 L457.256,35.176 L457.256,29.848 L438.896,29.848 L438.896,14.728 L460.496,14.728 L460.496,9.4 L432.344,9.4 L432.344,58 Z M470.792,58 L486.344,58 C499.592,58 506.72,49.216 506.72,33.232 C506.72,18.112 499.664,9.4 486.344,9.4 L470.792,9.4 L470.792,58 Z M477.344,52.672 L477.344,14.728 L486.416,14.728 C495.848,14.728 499.952,21.928 499.952,33.448 C499.952,45.112 495.92,52.672 486.416,52.672 L477.344,52.672 Z" id="DISCONNECTED" fill="#D0011B" sketch:type="MSShapeGroup"></path>
                <path d="M0.336,50 L15.888,50 C29.136,50 36.264,41.216 36.264,25.232 C36.264,10.112 29.208,1.4 15.888,1.4 L0.336,1.4 L0.336,50 Z M6.888,44.672 L6.888,6.728 L15.96,6.728 C25.392,6.728 29.496,13.928 29.496,25.448 C29.496,37.112 25.464,44.672 15.96,44.672 L6.888,44.672 Z M42.816,6.512 L49.296,6.512 L49.296,44.888 L42.816,44.888 L42.816,50 L63.12,50 L63.12,44.888 L55.848,44.888 L55.848,6.512 L63.12,6.512 L63.12,1.4 L42.816,1.4 L42.816,6.512 Z M69.888,35.672 C68.304,45.536 76.152,50.864 86.952,50.864 C98.616,50.864 104.304,44.6 104.304,36.896 C104.304,27.68 96.24,25.016 89.112,22.712 C82.632,20.696 77.52,18.752 77.52,13.064 C77.52,8.96 80.112,5.432 87.312,5.432 C94.512,5.432 98.112,8.816 97.032,16.952 L103.584,16.304 C104.808,7.16 99.552,0.536 87.672,0.536 C77.088,0.536 70.824,5.864 70.824,14 C70.824,24.224 80.4,26.456 87.168,28.76 C93.72,30.92 97.608,33.224 97.608,38.048 C97.608,41.936 95.232,45.68 87.096,45.68 C78.24,45.68 74.28,41.216 75.936,34.952 L69.888,35.672 Z M132.24,50.864 C143.4,50.864 150.168,44.528 149.664,36.248 L143.904,35.528 C144.408,42.296 139.152,45.68 132.456,45.68 C124.968,45.68 118.92,41.432 118.92,25.52 C118.92,9.968 124.68,5.432 132.024,5.432 C139.152,5.432 143.76,8.672 142.608,16.952 L149.16,16.304 C150.384,7.304 144.552,0.536 132.168,0.536 C119.928,0.536 111.936,7.736 111.936,25.448 C111.936,43.088 119.928,50.864 132.24,50.864 L132.24,50.864 Z M177.384,50.864 C188.832,50.864 197.472,44.456 197.472,25.016 C197.472,7.52 189.12,0.536 177.384,0.536 C165.648,0.536 157.08,7.52 157.08,25.016 C157.08,43.88 165.648,50.864 177.384,50.864 L177.384,50.864 Z M177.24,45.968 C169.896,45.968 163.92,41.36 163.92,25.016 C163.92,10.04 169.896,5.432 177.24,5.432 C184.584,5.432 190.632,10.04 190.632,25.016 C190.632,41.36 184.584,45.968 177.24,45.968 L177.24,45.968 Z M207.768,50 L213.312,50 L213.312,19.544 C213.312,15.944 212.88,12.056 212.88,12.056 L213.168,12.056 C213.168,12.056 214.968,15.8 216.768,18.608 L237.072,50 L242.688,50 L242.688,1.4 L237.144,1.4 L237.144,32.288 C237.144,35.528 237.72,39.56 237.72,39.56 L237.432,39.56 C237.432,39.56 235.416,35.528 233.832,33.08 L213.312,1.4 L207.768,1.4 L207.768,50 Z M255.36,50 L260.904,50 L260.904,19.544 C260.904,15.944 260.472,12.056 260.472,12.056 L260.76,12.056 C260.76,12.056 262.56,15.8 264.36,18.608 L284.664,50 L290.28,50 L290.28,1.4 L284.736,1.4 L284.736,32.288 C284.736,35.528 285.312,39.56 285.312,39.56 L285.024,39.56 C285.024,39.56 283.008,35.528 281.424,33.08 L260.904,1.4 L255.36,1.4 L255.36,50 Z M302.952,50 L331.824,50 L331.824,44.672 L309.504,44.672 L309.504,27.176 L327.864,27.176 L327.864,21.848 L309.504,21.848 L309.504,6.728 L331.104,6.728 L331.104,1.4 L302.952,1.4 L302.952,50 Z M358.608,50.864 C369.768,50.864 376.536,44.528 376.032,36.248 L370.272,35.528 C370.776,42.296 365.52,45.68 358.824,45.68 C351.336,45.68 345.288,41.432 345.288,25.52 C345.288,9.968 351.048,5.432 358.392,5.432 C365.52,5.432 370.128,8.672 368.976,16.952 L375.528,16.304 C376.752,7.304 370.92,0.536 358.536,0.536 C346.296,0.536 338.304,7.736 338.304,25.448 C338.304,43.088 346.296,50.864 358.608,50.864 L358.608,50.864 Z M381.432,6.728 L395.4,6.728 L395.4,50 L401.952,50 L401.952,6.728 L416.208,6.728 L416.208,1.4 L381.432,1.4 L381.432,6.728 Z M424.344,50 L453.216,50 L453.216,44.672 L430.896,44.672 L430.896,27.176 L449.256,27.176 L449.256,21.848 L430.896,21.848 L430.896,6.728 L452.496,6.728 L452.496,1.4 L424.344,1.4 L424.344,50 Z M462.792,50 L478.344,50 C491.592,50 498.72,41.216 498.72,25.232 C498.72,10.112 491.664,1.4 478.344,1.4 L462.792,1.4 L462.792,50 Z M469.344,44.672 L469.344,6.728 L478.416,6.728 C487.848,6.728 491.952,13.928 491.952,25.448 C491.952,37.112 487.92,44.672 478.416,44.672 L469.344,44.672 Z" id="DISCONNECTED-Copy-2" fill="#4990E2" sketch:type="MSShapeGroup"></path>
                <path d="M20.336,70 L35.888,70 C49.136,70 56.264,61.216 56.264,45.232 C56.264,30.112 49.208,21.4 35.888,21.4 L20.336,21.4 L20.336,70 Z M26.888,64.672 L26.888,26.728 L35.96,26.728 C45.392,26.728 49.496,33.928 49.496,45.448 C49.496,57.112 45.464,64.672 35.96,64.672 L26.888,64.672 Z M62.816,26.512 L69.296,26.512 L69.296,64.888 L62.816,64.888 L62.816,70 L83.12,70 L83.12,64.888 L75.848,64.888 L75.848,26.512 L83.12,26.512 L83.12,21.4 L62.816,21.4 L62.816,26.512 Z M89.888,55.672 C88.304,65.536 96.152,70.864 106.952,70.864 C118.616,70.864 124.304,64.6 124.304,56.896 C124.304,47.68 116.24,45.016 109.112,42.712 C102.632,40.696 97.52,38.752 97.52,33.064 C97.52,28.96 100.112,25.432 107.312,25.432 C114.512,25.432 118.112,28.816 117.032,36.952 L123.584,36.304 C124.808,27.16 119.552,20.536 107.672,20.536 C97.088,20.536 90.824,25.864 90.824,34 C90.824,44.224 100.4,46.456 107.168,48.76 C113.72,50.92 117.608,53.224 117.608,58.048 C117.608,61.936 115.232,65.68 107.096,65.68 C98.24,65.68 94.28,61.216 95.936,54.952 L89.888,55.672 Z M152.24,70.864 C163.4,70.864 170.168,64.528 169.664,56.248 L163.904,55.528 C164.408,62.296 159.152,65.68 152.456,65.68 C144.968,65.68 138.92,61.432 138.92,45.52 C138.92,29.968 144.68,25.432 152.024,25.432 C159.152,25.432 163.76,28.672 162.608,36.952 L169.16,36.304 C170.384,27.304 164.552,20.536 152.168,20.536 C139.928,20.536 131.936,27.736 131.936,45.448 C131.936,63.088 139.928,70.864 152.24,70.864 L152.24,70.864 Z M197.384,70.864 C208.832,70.864 217.472,64.456 217.472,45.016 C217.472,27.52 209.12,20.536 197.384,20.536 C185.648,20.536 177.08,27.52 177.08,45.016 C177.08,63.88 185.648,70.864 197.384,70.864 L197.384,70.864 Z M197.24,65.968 C189.896,65.968 183.92,61.36 183.92,45.016 C183.92,30.04 189.896,25.432 197.24,25.432 C204.584,25.432 210.632,30.04 210.632,45.016 C210.632,61.36 204.584,65.968 197.24,65.968 L197.24,65.968 Z M227.768,70 L233.312,70 L233.312,39.544 C233.312,35.944 232.88,32.056 232.88,32.056 L233.168,32.056 C233.168,32.056 234.968,35.8 236.768,38.608 L257.072,70 L262.688,70 L262.688,21.4 L257.144,21.4 L257.144,52.288 C257.144,55.528 257.72,59.56 257.72,59.56 L257.432,59.56 C257.432,59.56 255.416,55.528 253.832,53.08 L233.312,21.4 L227.768,21.4 L227.768,70 Z M275.36,70 L280.904,70 L280.904,39.544 C280.904,35.944 280.472,32.056 280.472,32.056 L280.76,32.056 C280.76,32.056 282.56,35.8 284.36,38.608 L304.664,70 L310.28,70 L310.28,21.4 L304.736,21.4 L304.736,52.288 C304.736,55.528 305.312,59.56 305.312,59.56 L305.024,59.56 C305.024,59.56 303.008,55.528 301.424,53.08 L280.904,21.4 L275.36,21.4 L275.36,70 Z M322.952,70 L351.824,70 L351.824,64.672 L329.504,64.672 L329.504,47.176 L347.864,47.176 L347.864,41.848 L329.504,41.848 L329.504,26.728 L351.104,26.728 L351.104,21.4 L322.952,21.4 L322.952,70 Z M378.608,70.864 C389.768,70.864 396.536,64.528 396.032,56.248 L390.272,55.528 C390.776,62.296 385.52,65.68 378.824,65.68 C371.336,65.68 365.288,61.432 365.288,45.52 C365.288,29.968 371.048,25.432 378.392,25.432 C385.52,25.432 390.128,28.672 388.976,36.952 L395.528,36.304 C396.752,27.304 390.92,20.536 378.536,20.536 C366.296,20.536 358.304,27.736 358.304,45.448 C358.304,63.088 366.296,70.864 378.608,70.864 L378.608,70.864 Z M401.432,26.728 L415.4,26.728 L415.4,70 L421.952,70 L421.952,26.728 L436.208,26.728 L436.208,21.4 L401.432,21.4 L401.432,26.728 Z M444.344,70 L473.216,70 L473.216,64.672 L450.896,64.672 L450.896,47.176 L469.256,47.176 L469.256,41.848 L450.896,41.848 L450.896,26.728 L472.496,26.728 L472.496,21.4 L444.344,21.4 L444.344,70 Z M482.792,70 L498.344,70 C511.592,70 518.72,61.216 518.72,45.232 C518.72,30.112 511.664,21.4 498.344,21.4 L482.792,21.4 L482.792,70 Z M489.344,64.672 L489.344,26.728 L498.416,26.728 C507.848,26.728 511.952,33.928 511.952,45.448 C511.952,57.112 507.92,64.672 498.416,64.672 L489.344,64.672 Z" id="DISCONNECTED-Copy" fill="#50E3C2" sketch:type="MSShapeGroup"></path>
            </g>
        </g>
    </g>
</svg>