<?xml version="1.0" encoding="UTF-8" standalone="no"?>
<svg width="363px" height="27px" viewBox="0 0 363 27" version="1.1" xmlns="http://www.w3.org/2000/svg" xmlns:xlink="http://www.w3.org/1999/xlink" xmlns:sketch="http://www.bohemiancoding.com/sketch/ns">
    <!-- Generator: Sketch 3.3.3 (12072) - http://www.bohemiancoding.com/sketch -->
    <title>web_2</title>
    <desc>Created with Sketch.</desc>
    <defs></defs>
    <g id="Page-1" stroke="none" stroke-width="1" fill="none" fill-rule="evenodd" sketch:type="MSPage">
        <g id="iPad-Portrait" sketch:type="MSArtboardGroup" transform="translate(-151.000000, -3329.000000)">
            <g id="web_2" sketch:type="MSLayerGroup" transform="translate(151.000000, 3329.000000)">
                <path d="M97.5,16.5 L269.572662,16.5" id="Line-Copy" stroke="#FC6920" stroke-linecap="square" sketch:type="MSShapeGroup"></path>
                <path id="Line-Copy-decoration-1" d="M97.5,16.5 L108.3,13.5 L108.3,19.5 L97.5,16.5 Z" stroke="#FC6920" stroke-linecap="square"></path>
                <path id="Line-Copy-decoration-2" d="M269.572662,16.5 L258.772662,13.5 L258.772662,19.5 L269.572662,16.5 Z" stroke="#FC6920" stroke-linecap="square"></path>
                <path d="M0.628,20.996 C0.628,24.848 2.752,26.432 5.92,26.432 C8.08,26.432 9.7,25.28 11.104,23.444 L11.824,26 L14.272,26 L13.912,23.408 L13.912,8.216 L10.852,8.216 L10.852,21.716 C9.7,22.868 8.368,23.768 6.532,23.768 C4.48,23.768 3.688,22.688 3.688,20.456 L3.688,8.216 L0.628,8.216 L0.628,20.996 Z M18.556,20.924 C18.412,21.392 18.34,21.824 18.34,22.256 C18.34,25.28 22.012,26.432 24.964,26.432 C29.176,26.432 31.948,24.452 31.948,21.212 C31.948,17.432 28.6,16.676 25.756,15.704 C23.668,14.984 21.868,14.48 21.868,12.5 C21.868,10.988 23.02,10.016 25.072,10.016 C27.16,10.016 28.78,10.916 28.78,12.788 C28.78,13.112 28.744,13.436 28.672,13.796 L31.696,13.436 C31.732,13.148 31.768,12.788 31.768,12.392 C31.768,9.332 29.032,7.784 25.468,7.784 C21.508,7.784 18.808,9.584 18.808,12.86 C18.808,16.352 21.724,17.468 24.424,18.368 C26.728,19.16 28.816,19.7 28.816,21.608 C28.816,22.976 27.88,24.2 25.144,24.2 C22.876,24.2 21.076,23.372 21.076,21.428 C21.076,21.176 21.112,20.924 21.184,20.636 L18.556,20.924 Z M35.476,17.576 C35.476,23.624 38.608,26.432 43.324,26.432 C47.176,26.432 49.84,24.596 49.84,21.572 C49.84,21.392 49.804,21.176 49.804,20.996 L47.14,20.636 C47.14,20.816 47.176,20.96 47.176,21.104 C47.176,23.372 45.16,24.056 43.36,24.056 C40.912,24.056 38.716,22.724 38.716,17.648 L38.716,17.468 L49.912,17.468 C49.948,16.856 49.984,16.28 49.984,15.74 C49.984,10.304 47.392,7.784 43.18,7.784 C37.096,7.784 35.476,12.968 35.476,17.576 L35.476,17.576 Z M43.108,10.016 C45.448,10.016 46.744,11.78 46.744,14.624 L46.744,15.2 L38.86,15.2 C39.328,11.348 41.02,10.016 43.108,10.016 L43.108,10.016 Z M54.556,26 L57.616,26 L57.616,13.76 C57.94,12.464 59.092,10.448 61.144,10.448 C63.268,10.448 62.944,12.788 62.584,13.976 L65.284,13.652 C66.256,11.42 65.536,7.784 62.116,7.784 C59.596,7.784 58.12,9.368 57.364,11.132 L56.932,8.216 L54.556,8.216 L54.556,26 Z" id="user-copy" fill="#FF6800" sketch:type="MSShapeGroup"></path>
                <path d="M306.516,26 L309.756,26 L312.852,15.812 C313.14,14.912 313.248,13.76 313.248,13.76 L313.392,13.76 C313.392,13.76 313.536,14.948 313.824,15.848 L316.92,26 L320.16,26 L325.668,8.216 L322.824,8.216 L319.296,20.168 C318.972,21.284 318.792,22.76 318.792,22.76 L318.648,22.76 C318.648,22.76 318.504,21.356 318.144,20.168 L314.652,8.216 L312.42,8.216 L308.892,20.168 C308.568,21.284 308.352,22.76 308.352,22.76 L308.208,22.76 C308.208,22.76 308.064,21.356 307.704,20.168 L304.176,8.216 L301.008,8.216 L306.516,26 Z M328.188,17.576 C328.188,23.624 331.32,26.432 336.036,26.432 C339.888,26.432 342.552,24.596 342.552,21.572 C342.552,21.392 342.516,21.176 342.516,20.996 L339.852,20.636 C339.852,20.816 339.888,20.96 339.888,21.104 C339.888,23.372 337.872,24.056 336.072,24.056 C333.624,24.056 331.428,22.724 331.428,17.648 L331.428,17.468 L342.624,17.468 C342.66,16.856 342.696,16.28 342.696,15.74 C342.696,10.304 340.104,7.784 335.892,7.784 C329.808,7.784 328.188,12.968 328.188,17.576 L328.188,17.576 Z M335.82,10.016 C338.16,10.016 339.456,11.78 339.456,14.624 L339.456,15.2 L331.572,15.2 C332.04,11.348 333.732,10.016 335.82,10.016 L335.82,10.016 Z M347.268,26.18 L348.384,26.18 L349.824,23.984 C350.868,25.748 352.812,26.432 354.756,26.432 C357.924,26.432 362.136,24.416 362.136,16.928 C362.136,9.728 358.248,7.784 355.224,7.784 C352.776,7.784 351.3,9.008 350.328,10.304 L350.328,0.26 L347.268,0.26 L347.268,26.18 Z M354.54,10.268 C356.412,10.268 358.968,11.384 358.968,17.108 C358.968,22.832 356.448,24.02 354.216,24.02 C352.56,24.02 351.3,23.336 350.328,22.22 L350.328,12.428 C351.012,11.6 352.524,10.268 354.54,10.268 L354.54,10.268 Z" id="web-copy" fill="#FF6800" sketch:type="MSShapeGroup"></path>
            </g>
        </g>
    </g>
</svg>